<svg width="188" height="188" viewBox="0 0 188 188" fill="none" xmlns="http://www.w3.org/2000/svg">
<circle opacity="0.1" cx="94" cy="93.9998" r="88.2448" fill="#1F1D2B" stroke="white" stroke-width="11.4783"/>
<circle opacity="0.05" cx="94.0003" cy="94" r="76.7346" fill="#1F1D2B" stroke="white" stroke-width="11.4783"/>
<circle opacity="0.1" cx="93.9995" cy="93.9995" r="65.2244" fill="#1F1D2B" stroke="white" stroke-width="11.4783"/>
<circle opacity="0.05" cx="93.9998" cy="93.9998" r="53.7142" fill="#1F1D2B" stroke="white" stroke-width="11.4783"/>
<path d="M5.75522 93.9998C5.75522 142.736 45.2638 182.245 94 182.245C142.736 182.245 182.245 142.736 182.245 93.9998C182.245 45.2635 142.736 5.75498 94 5.75498" stroke="#65B0F6" stroke-width="11.4783" stroke-linecap="round"/>
<path d="M94 170.735C136.379 170.735 170.735 136.379 170.735 94C170.735 51.6207 136.379 17.2654 94 17.2654" stroke="#FFB572" stroke-width="11.4783" stroke-linecap="round"/>
<path d="M94.4402 28.2218C105.814 28.2218 116.99 31.1961 126.86 36.8495C136.729 42.5028 144.949 50.6388 150.703 60.4499C156.457 70.261 159.545 81.4062 159.661 92.7795C159.777 104.153 156.918 115.359 151.365 125.286C145.813 135.212 137.762 143.515 128.01 149.368C118.258 155.222 107.145 158.425 95.7735 158.657C84.402 158.89 73.1673 156.144 63.1844 150.694C53.2014 145.243 44.8173 137.277 38.864 127.586" stroke="#FF7CA3" stroke-width="11.4783" stroke-linecap="round"/>
</svg>
